<svg width="370" height="107" viewBox="0 0 370 107" fill="none" xmlns="http://www.w3.org/2000/svg">
<path d="M0.200001 107V0.499994H72.5V22.1H24.8V45.05H64.1V65H24.8V107H0.200001ZM84.2504 88.4V73.1H131.8V88.4H84.2504ZM84.2504 58.1V42.8H131.8V58.1H84.2504ZM306.689 0.499994H333.239L369.839 107H344.639L336.389 83.15H303.239L295.139 107H269.939L306.689 0.499994ZM332.339 66.2L319.889 25.25L307.139 66.2H332.339Z" fill="white"/>
<path d="M234.786 107V43.55L211.836 89.75H198.336L175.386 43.55V107H150.786V0.499994H177.486L205.086 56.15L232.836 0.499994H259.386V107H234.786Z" fill="#FAAA3B"/>
</svg>
