<svg width="284.35" height="93.9" viewBox="0 0 284.35 93.9" xmlns="http://www.w3.org/2000/svg"><g id="svgGroup" stroke-linecap="round" fill-rule="evenodd" font-size="1pt" stroke="#ffffff" stroke-width="0.25mm" fill="#ffffff" style="stroke:#ffffff;stroke-width:0.2mm;fill:#ffffff"><path d="M 0 53.7 L 10.6 52.7 A 60.031 60.031 0 0 0 10.725 56.626 A 53.844 53.844 0 0 0 10.775 57.325 Q 10.95 59.55 11.425 61.325 A 9.027 9.027 0 0 0 11.865 62.601 Q 12.261 63.51 12.825 64.15 A 2.995 2.995 0 0 0 15.01 65.196 A 3.866 3.866 0 0 0 15.2 65.2 A 3.99 3.99 0 0 0 16.67 64.943 Q 17.94 64.444 18.6 62.975 Q 19.6 60.75 19.6 57.6 A 13.41 13.41 0 0 0 19.018 53.771 A 17.944 17.944 0 0 0 17.95 51.05 Q 16.3 47.65 14 44.6 Q 10.1 39.4 7.175 34.95 Q 4.25 30.5 2.625 26.2 Q 1 21.9 1 17.2 A 25.205 25.205 0 0 1 1.353 12.904 A 20.959 20.959 0 0 1 1.95 10.375 A 17.433 17.433 0 0 1 3.55 6.659 A 15.143 15.143 0 0 1 4.725 4.925 Q 6.55 2.6 9.15 1.3 A 12.264 12.264 0 0 1 13.079 0.127 A 15.62 15.62 0 0 1 15.1 0 A 20.458 20.458 0 0 1 18.258 0.231 Q 19.944 0.494 21.356 1.06 A 11.653 11.653 0 0 1 22.125 1.4 Q 25 2.8 26.775 5.4 A 16.538 16.538 0 0 1 28.623 9.031 A 21.089 21.089 0 0 1 29.375 11.575 A 31.552 31.552 0 0 1 30.042 15.842 A 40.835 40.835 0 0 1 30.2 19.5 L 19.6 20.5 Q 19.6 18.65 19.425 16.775 A 20.423 20.423 0 0 0 19.141 14.769 A 16.196 16.196 0 0 0 18.8 13.35 A 7.905 7.905 0 0 0 18.349 12.149 Q 17.991 11.399 17.5 10.85 A 2.786 2.786 0 0 0 15.467 9.904 A 3.708 3.708 0 0 0 15.3 9.9 A 3.82 3.82 0 0 0 14.141 10.065 Q 12.956 10.441 12.4 11.675 A 7.477 7.477 0 0 0 11.945 13.07 Q 11.622 14.471 11.601 16.428 A 25.655 25.655 0 0 0 11.6 16.7 A 15.827 15.827 0 0 0 13.512 24.189 A 18.897 18.897 0 0 0 13.85 24.8 Q 15.397 27.481 17.676 30.777 A 147.866 147.866 0 0 0 19.9 33.9 A 132.896 132.896 0 0 1 23.561 39.09 Q 25.171 41.5 26.483 43.732 A 75.761 75.761 0 0 1 27.325 45.2 Q 30.2 50.35 30.2 56.6 A 32.244 32.244 0 0 1 29.876 61.257 A 26.714 26.714 0 0 1 29.35 63.925 A 18.139 18.139 0 0 1 27.997 67.625 A 15.274 15.274 0 0 1 26.675 69.8 Q 24.85 72.3 22.025 73.7 A 12.868 12.868 0 0 1 18.746 74.782 Q 17.311 75.06 15.672 75.095 A 22.267 22.267 0 0 1 15.2 75.1 A 22.226 22.226 0 0 1 12.073 74.893 Q 9.644 74.547 7.8 73.625 Q 4.85 72.15 3.15 69.35 A 17.244 17.244 0 0 1 1.582 65.944 A 23.603 23.603 0 0 1 0.725 62.6 A 42.328 42.328 0 0 1 0.181 58.4 Q 0.003 56.21 0 53.777 A 67.206 67.206 0 0 1 0 53.7 Z M 256.15 93.65 L 256.15 84.7 A 0.786 0.786 0 0 0 256.224 84.72 Q 256.406 84.761 256.869 84.816 A 24.459 24.459 0 0 0 256.95 84.825 Q 257.507 84.889 257.734 84.899 A 1.662 1.662 0 0 0 257.8 84.9 A 8.521 8.521 0 0 0 259.749 84.689 A 5.915 5.915 0 0 0 262.325 83.4 A 7.604 7.604 0 0 0 264.336 80.588 A 9.763 9.763 0 0 0 264.75 79.4 Q 265 78.65 265.025 77.65 A 92.367 92.367 0 0 0 265.04 76.935 Q 265.05 76.369 265.05 75.9 L 255.75 19.6 L 265.65 19.6 L 269.65 53.7 L 269.85 57.5 L 270.25 57.5 L 270.45 53.7 L 274.45 19.6 L 284.35 19.6 L 274.65 78.4 A 23.332 23.332 0 0 1 273.359 83.739 A 20.301 20.301 0 0 1 272.175 86.325 A 15.17 15.17 0 0 1 268.57 90.769 A 14.422 14.422 0 0 1 267.05 91.875 A 12.934 12.934 0 0 1 262.083 93.702 A 16.941 16.941 0 0 1 259.45 93.9 A 20.809 20.809 0 0 1 258.927 93.893 Q 258.695 93.887 258.438 93.877 A 39.391 39.391 0 0 1 257.9 93.85 Q 257 93.8 256.15 93.65 Z M 60.7 74.3 L 50.6 74.3 L 50.6 19.6 L 60.7 19.6 L 60.7 24.2 A 55.484 55.484 0 0 1 63.061 22.04 A 68.725 68.725 0 0 1 64.75 20.625 A 11.251 11.251 0 0 1 66.055 19.702 Q 66.762 19.28 67.432 19.055 A 4.604 4.604 0 0 1 68.9 18.8 Q 71.4 18.8 73.1 20.4 A 9.547 9.547 0 0 1 75.237 23.419 A 11.671 11.671 0 0 1 75.65 24.45 Q 76.5 26.9 76.5 29.5 L 76.5 74.3 L 66.4 74.3 L 66.4 31.5 Q 66.4 30.188 66.03 29.515 A 1.604 1.604 0 0 0 65.85 29.25 A 1.635 1.635 0 0 0 65.177 28.786 Q 64.696 28.6 64 28.6 A 2.551 2.551 0 0 0 62.149 29.351 A 3.07 3.07 0 0 0 62.125 29.375 A 9.487 9.487 0 0 0 61.118 30.571 A 11.411 11.411 0 0 0 60.7 31.2 L 60.7 74.3 Z M 116 64.4 L 116 19.6 L 126.1 19.6 L 126.1 62.4 A 6.638 6.638 0 0 0 126.141 63.162 Q 126.253 64.13 126.675 64.625 Q 127.25 65.3 128.5 65.3 A 2.551 2.551 0 0 0 130.351 64.549 A 3.07 3.07 0 0 0 130.375 64.525 A 9.487 9.487 0 0 0 131.382 63.33 A 11.411 11.411 0 0 0 131.8 62.7 L 131.8 19.6 L 141.9 19.6 L 141.9 74.3 L 131.8 74.3 L 131.8 69.7 Q 130 71.4 127.75 73.25 Q 126.34 74.409 125.068 74.842 A 4.548 4.548 0 0 1 123.6 75.1 Q 121.1 75.1 119.4 73.5 A 9.453 9.453 0 0 1 117.328 70.608 A 11.675 11.675 0 0 1 116.85 69.425 Q 116 66.95 116 64.4 Z M 82.05 47.6 L 82.05 32.7 A 18.053 18.053 0 0 1 82.573 28.243 A 13.169 13.169 0 0 1 85.475 22.675 Q 88.9 18.8 94.85 18.8 Q 97.852 18.8 99.988 19.697 A 8.568 8.568 0 0 1 101.125 20.275 A 13.559 13.559 0 0 1 103.412 22.005 A 11.064 11.064 0 0 1 104.95 23.8 Q 106.4 21.35 108.85 20.075 A 13.962 13.962 0 0 1 110.475 19.349 Q 111.97 18.8 113.25 18.8 L 113.25 27.8 Q 111.25 27.8 109.75 28.125 Q 108.67 28.359 107.902 28.71 A 5.17 5.17 0 0 0 107.35 29 Q 107.475 29.291 107.617 30.101 A 22.375 22.375 0 0 1 107.675 30.45 A 15.744 15.744 0 0 1 107.795 31.365 Q 107.836 31.783 107.847 32.156 A 8.782 8.782 0 0 1 107.85 32.4 L 107.85 47.9 A 15.579 15.579 0 0 1 107.146 52.679 A 12.93 12.93 0 0 1 104.3 57.55 A 11.769 11.769 0 0 1 96.723 61.297 A 16.453 16.453 0 0 1 94.85 61.4 A 30.944 30.944 0 0 1 94.243 61.395 Q 93.493 61.38 93.101 61.325 A 2.615 2.615 0 0 1 92.95 61.3 A 7.143 7.143 0 0 0 92.401 61.863 Q 92.142 62.162 91.95 62.46 A 4.338 4.338 0 0 0 91.925 62.5 Q 91.55 63.1 91.55 63.8 Q 91.55 65.4 93.375 66.075 Q 94.601 66.529 96.38 66.881 A 38.986 38.986 0 0 0 98.25 67.2 Q 103.503 67.974 107.148 69.975 A 17.54 17.54 0 0 1 108.725 70.95 Q 112.75 73.75 112.75 79.9 A 15.619 15.619 0 0 1 112.38 83.391 A 11.059 11.059 0 0 1 110.325 87.8 Q 107.9 90.9 104.05 92.4 Q 100.2 93.9 95.95 93.9 A 33.631 33.631 0 0 1 90.487 93.471 A 28.78 28.78 0 0 1 88 92.95 A 16.352 16.352 0 0 1 85.038 91.895 A 11.797 11.797 0 0 1 82.025 89.875 A 7.065 7.065 0 0 1 79.79 85.193 A 9.716 9.716 0 0 1 79.75 84.3 Q 79.75 81.65 81.225 79.7 A 13.611 13.611 0 0 1 83.649 77.205 A 12.297 12.297 0 0 1 84.6 76.525 A 22.125 22.125 0 0 1 85.609 75.909 Q 86.563 75.365 87.277 75.115 A 4.81 4.81 0 0 1 87.65 75 Q 85.2 74.3 83.375 72.6 A 5.485 5.485 0 0 1 81.817 69.93 Q 81.583 69.051 81.554 68.003 A 10.852 10.852 0 0 1 81.55 67.7 Q 81.55 64.6 83.55 62.65 A 18.661 18.661 0 0 1 86.928 60.019 A 16.936 16.936 0 0 1 87.85 59.5 Q 85.1 57.7 83.575 54.775 A 12.735 12.735 0 0 1 82.431 51.519 Q 82.121 50.062 82.063 48.385 A 22.676 22.676 0 0 1 82.05 47.6 Z M 179.15 38.6 L 179.15 32.6 Q 179.15 30.55 178.675 29.075 A 2.048 2.048 0 0 0 178.094 28.148 Q 177.477 27.6 176.35 27.6 A 2.803 2.803 0 0 0 175.416 27.746 Q 174.467 28.08 174.05 29.175 A 8.305 8.305 0 0 0 173.651 30.642 Q 173.516 31.381 173.472 32.237 A 16.749 16.749 0 0 0 173.45 33.1 L 173.45 35.7 L 163.35 35.7 L 163.35 33.4 A 19.25 19.25 0 0 1 163.69 29.697 A 14.23 14.23 0 0 1 165.125 25.625 Q 166.9 22.35 169.975 20.575 Q 173.05 18.8 176.95 18.8 A 13.708 13.708 0 0 1 180.297 19.192 A 10.877 10.877 0 0 1 183.45 20.525 Q 186.2 22.25 187.725 25.275 A 14.184 14.184 0 0 1 189.101 29.848 A 18.045 18.045 0 0 1 189.25 32.2 L 189.25 64.8 Q 189.25 67.809 189.386 69.713 A 28.181 28.181 0 0 0 189.45 70.475 Q 189.65 72.5 189.95 74.3 L 180.05 74.3 A 2.918 2.918 0 0 1 179.609 73.526 Q 179.349 72.871 179.275 71.95 A 95.284 95.284 0 0 1 179.226 71.322 Q 179.168 70.533 179.154 70.119 A 6.739 6.739 0 0 1 179.15 69.9 L 178.45 69.9 A 11.958 11.958 0 0 1 176.439 72.634 A 10.744 10.744 0 0 1 175.275 73.65 Q 173.35 75.1 170.85 75.1 A 6.54 6.54 0 0 1 166.487 73.422 Q 165.599 72.661 164.803 71.555 A 13.881 13.881 0 0 1 164.8 71.55 Q 162.355 68.147 162.254 61.297 A 40.482 40.482 0 0 1 162.25 60.7 A 26.955 26.955 0 0 1 162.607 56.178 Q 163.05 53.581 164.04 51.481 A 14.279 14.279 0 0 1 165.275 49.35 A 20.409 20.409 0 0 1 169.056 45.338 Q 171.325 43.475 174.35 41.9 Q 175.805 41.135 176.908 40.486 A 37.127 37.127 0 0 0 177.55 40.1 A 8.439 8.439 0 0 0 178.138 39.706 Q 178.699 39.292 178.974 38.906 A 1.644 1.644 0 0 0 179.15 38.6 Z M 237.45 57.7 L 237.45 28.7 L 232.35 28.7 L 232.35 19.6 L 237.45 19.6 L 237.45 6.1 L 247.55 6.1 L 247.55 19.6 L 254.5 19.6 L 254.5 28.7 L 247.55 28.7 L 247.55 59.15 A 17.176 17.176 0 0 0 247.625 60.818 Q 247.817 62.779 248.5 63.875 A 3.116 3.116 0 0 0 250.687 65.322 A 5.045 5.045 0 0 0 251.6 65.4 A 10.275 10.275 0 0 0 252.388 65.372 Q 252.777 65.342 253.12 65.28 A 5.932 5.932 0 0 0 253.275 65.25 Q 253.784 65.145 254.158 65.015 A 3.781 3.781 0 0 0 254.45 64.9 L 254.45 74.15 A 14.363 14.363 0 0 1 252.992 74.641 A 17.061 17.061 0 0 1 252.275 74.825 A 8.372 8.372 0 0 1 251.455 74.97 Q 250.599 75.082 249.438 75.098 A 28.71 28.71 0 0 1 249.05 75.1 A 17.208 17.208 0 0 1 246.301 74.895 Q 243.519 74.444 241.8 73 Q 239.3 70.9 238.375 67 A 31.536 31.536 0 0 1 237.747 63.336 Q 237.529 61.443 237.471 59.291 A 59.19 59.19 0 0 1 237.45 57.7 Z M 157.5 74.3 L 147.4 74.3 L 147.4 0.8 L 157.5 0.8 L 157.5 74.3 Z M 205.05 74.3 L 194.95 74.3 L 194.95 19.6 L 205.05 19.6 L 205.05 25.7 A 6.146 6.146 0 0 1 206.598 22.47 A 7.695 7.695 0 0 1 206.9 22.15 A 10.9 10.9 0 0 1 209.864 20.061 A 12.896 12.896 0 0 1 210.675 19.7 A 12.057 12.057 0 0 1 214.307 18.832 A 11.243 11.243 0 0 1 215.15 18.8 L 215.15 30 Q 214.5 29.75 213.775 29.675 Q 213.05 29.6 212.35 29.6 A 9.821 9.821 0 0 0 210.069 29.851 A 6.778 6.778 0 0 0 207.05 31.4 A 5.928 5.928 0 0 0 205.136 35.072 A 8.481 8.481 0 0 0 205.05 36.3 L 205.05 74.3 Z M 45.1 74.3 L 35 74.3 L 35 19.6 L 45.1 19.6 L 45.1 74.3 Z M 229.25 74.3 L 219.15 74.3 L 219.15 19.6 L 229.25 19.6 L 229.25 74.3 Z M 97.95 48.6 L 97.95 32.6 Q 97.95 30.6 97.3 29.35 A 2.207 2.207 0 0 0 95.695 28.17 A 3.737 3.737 0 0 0 94.95 28.1 A 3.431 3.431 0 0 0 94.044 28.212 A 2.198 2.198 0 0 0 92.6 29.4 Q 92.014 30.571 91.956 32.229 A 10.599 10.599 0 0 0 91.95 32.6 L 91.95 48.6 A 11.143 11.143 0 0 0 92.005 49.751 Q 92.147 51.11 92.65 51.9 A 2.28 2.28 0 0 0 94.164 52.923 A 3.747 3.747 0 0 0 94.95 53 A 3.658 3.658 0 0 0 95.821 52.903 A 2.263 2.263 0 0 0 97.25 51.9 A 3.698 3.698 0 0 0 97.656 50.991 Q 97.95 50.027 97.95 48.6 Z M 45.1 10.9 L 35 10.9 L 35 0.8 L 45.1 0.8 L 45.1 10.9 Z M 229.25 10.9 L 219.15 10.9 L 219.15 0.8 L 229.25 0.8 L 229.25 10.9 Z M 179.15 61.4 L 179.15 48.4 A 11.749 11.749 0 0 0 176.167 50.195 A 9.721 9.721 0 0 0 173.825 53.075 A 14.203 14.203 0 0 0 172.209 58.665 A 17.215 17.215 0 0 0 172.15 60.1 A 9.359 9.359 0 0 0 172.684 63.181 A 10.722 10.722 0 0 0 172.8 63.5 A 3.601 3.601 0 0 0 173.202 64.279 Q 173.559 64.79 174.058 65.017 A 2.124 2.124 0 0 0 174.95 65.2 A 4.211 4.211 0 0 0 176.821 64.788 A 4.215 4.215 0 0 0 177.925 64 A 4.736 4.736 0 0 0 178.641 63.122 A 3.213 3.213 0 0 0 179.15 61.4 Z M 97.45 77.8 L 93.25 76.8 A 12.35 12.35 0 0 0 91.577 77.957 A 10.183 10.183 0 0 0 90.625 78.85 Q 89.55 80 89.55 81.6 A 2.923 2.923 0 0 0 90.316 83.57 A 4.671 4.671 0 0 0 91.1 84.275 Q 92.485 85.28 95.426 85.387 A 19.9 19.9 0 0 0 96.15 85.4 A 11.723 11.723 0 0 0 98.282 85.215 A 8.632 8.632 0 0 0 100.5 84.5 A 3.826 3.826 0 0 0 101.476 83.84 Q 102.35 83.006 102.35 81.7 A 4.972 4.972 0 0 0 102.272 80.783 Q 102.18 80.294 101.979 79.922 A 2.038 2.038 0 0 0 101.225 79.125 Q 100.305 78.573 98.366 78.038 A 32.998 32.998 0 0 0 97.45 77.8 Z" vector-effect="scaling-stroke"/></g></svg>
