<svg width="846" height="146" viewBox="0 0 846 146" fill="none" xmlns="http://www.w3.org/2000/svg">
<path d="M0.4 71.8C0.4 63.1333 2 54.6667 5.2 46.4C8.4 38 13.0667 30.4 19.2 23.6C25.3333 16.8 32.8 11.4 41.6 7.39999C50.4 3.26666 60.4 1.19999 71.6 1.19999C84.9333 1.19999 96.4667 4.06666 106.2 9.8C116.067 15.5333 123.4 23 128.2 32.2L103 49.8C100.867 44.7333 98 40.8 94.4 38C90.9333 35.2 87.0667 33.2667 82.8 32.2C78.6667 31 74.6667 30.4 70.8 30.4C64.5333 30.4 59.0667 31.6667 54.4 34.2C49.7333 36.6 45.8667 39.8667 42.8 44C39.7333 48.1333 37.4667 52.7333 36 57.8C34.5333 62.8667 33.8 67.9333 33.8 73C33.8 78.6 34.6667 84 36.4 89.2C38.1333 94.4 40.6 99 43.8 103C47.1333 107 51.1333 110.2 55.8 112.6C60.4667 114.867 65.6 116 71.2 116C75.2 116 79.2667 115.333 83.4 114C87.5333 112.667 91.3333 110.6 94.8 107.8C98.4 104.867 101.133 101.067 103 96.4L129.8 112.2C127 119.133 122.4 125.067 116 130C109.6 134.933 102.333 138.733 94.2 141.4C86.2 143.933 78.2667 145.2 70.4 145.2C60.1333 145.2 50.6667 143.133 42 139C33.4667 134.733 26.0667 129.133 19.8 122.2C13.6667 115.133 8.86667 107.267 5.4 98.6C2.06667 89.8 0.4 80.8667 0.4 71.8ZM206.542 145.2C195.876 145.2 186.209 143.2 177.542 139.2C169.009 135.067 161.609 129.6 155.342 122.8C149.209 115.867 144.476 108.133 141.142 99.6C137.809 90.9333 136.142 82 136.142 72.8C136.142 63.3333 137.876 54.3333 141.342 45.8C144.942 37.2667 149.876 29.6667 156.142 23C162.542 16.2 170.076 10.8667 178.742 6.99999C187.409 3.13332 196.876 1.19999 207.142 1.19999C217.676 1.19999 227.209 3.26666 235.742 7.39999C244.409 11.4 251.809 16.8667 257.942 23.8C264.209 30.7333 269.009 38.5333 272.342 47.2C275.676 55.7333 277.342 64.4667 277.342 73.4C277.342 82.8667 275.609 91.8667 272.142 100.4C268.676 108.933 263.742 116.6 257.342 123.4C250.942 130.067 243.409 135.4 234.742 139.4C226.209 143.267 216.809 145.2 206.542 145.2ZM169.542 73.2C169.542 78.6667 170.342 84 171.942 89.2C173.542 94.2667 175.876 98.8 178.942 102.8C182.142 106.8 186.076 110 190.742 112.4C195.409 114.8 200.742 116 206.742 116C213.009 116 218.476 114.8 223.142 112.4C227.809 109.867 231.676 106.533 234.742 102.4C237.809 98.2667 240.076 93.6667 241.542 88.6C243.142 83.4 243.942 78.1333 243.942 72.8C243.942 67.3333 243.142 62.0667 241.542 57C239.942 51.9333 237.542 47.4 234.342 43.4C231.142 39.2667 227.209 36.0667 222.542 33.8C217.876 31.5333 212.609 30.4 206.742 30.4C200.476 30.4 195.009 31.6 190.342 34C185.809 36.4 181.942 39.6667 178.742 43.8C175.676 47.8 173.342 52.4 171.742 57.6C170.276 62.6667 169.542 67.8667 169.542 73.2ZM380.714 43.6C380.314 42.9333 378.914 41.9333 376.514 40.6C374.114 39.1333 371.114 37.6 367.514 36C363.914 34.4 359.981 33 355.714 31.8C351.447 30.6 347.181 30 342.914 30C337.314 30 332.981 31 329.914 33C326.847 34.8667 325.314 37.8 325.314 41.8C325.314 45 326.447 47.5333 328.714 49.4C331.114 51.2667 334.514 52.9333 338.914 54.4C343.314 55.7333 348.714 57.3333 355.114 59.2C364.181 61.6 372.047 64.5333 378.714 68C385.381 71.3333 390.447 75.6667 393.914 81C397.514 86.3333 399.314 93.4 399.314 102.2C399.314 110.2 397.847 117 394.914 122.6C391.981 128.067 387.981 132.533 382.914 136C377.981 139.333 372.314 141.8 365.914 143.4C359.514 144.867 352.914 145.6 346.114 145.6C339.181 145.6 332.047 144.933 324.714 143.6C317.514 142.133 310.581 140.133 303.914 137.6C297.247 134.933 291.114 131.733 285.514 128L299.914 99.4C300.447 100.067 302.181 101.333 305.114 103.2C308.047 104.933 311.647 106.8 315.914 108.8C320.314 110.667 325.181 112.333 330.514 113.8C335.847 115.267 341.247 116 346.714 116C352.581 116 356.914 115.067 359.714 113.2C362.647 111.333 364.114 108.733 364.114 105.4C364.114 101.8 362.581 99 359.514 97C356.581 95 352.514 93.2 347.314 91.6C342.247 90 336.381 88.2 329.714 86.2C321.047 83.5333 313.847 80.5333 308.114 77.2C302.514 73.8667 298.314 69.8 295.514 65C292.847 60.2 291.514 54.2 291.514 47C291.514 37 293.847 28.6 298.514 21.8C303.314 14.8667 309.714 9.66666 317.714 6.2C325.714 2.6 334.447 0.799996 343.914 0.799996C350.581 0.799996 356.981 1.59999 363.114 3.19999C369.381 4.79999 375.181 6.79999 380.514 9.2C385.981 11.6 390.847 14 395.114 16.4L380.714 43.6ZM530.561 144V59.4L499.961 121H481.961L451.361 59.4V144H418.561V1.99999H454.161L490.961 76.2L527.961 1.99999H563.361V144H530.561ZM652.831 145.2C642.165 145.2 632.498 143.2 623.831 139.2C615.298 135.067 607.898 129.6 601.631 122.8C595.498 115.867 590.765 108.133 587.431 99.6C584.098 90.9333 582.431 82 582.431 72.8C582.431 63.3333 584.165 54.3333 587.631 45.8C591.231 37.2667 596.165 29.6667 602.431 23C608.831 16.2 616.365 10.8667 625.031 6.99999C633.698 3.13332 643.165 1.19999 653.431 1.19999C663.965 1.19999 673.498 3.26666 682.031 7.39999C690.698 11.4 698.098 16.8667 704.231 23.8C710.498 30.7333 715.298 38.5333 718.631 47.2C721.965 55.7333 723.631 64.4667 723.631 73.4C723.631 82.8667 721.898 91.8667 718.431 100.4C714.965 108.933 710.031 116.6 703.631 123.4C697.231 130.067 689.698 135.4 681.031 139.4C672.498 143.267 663.098 145.2 652.831 145.2ZM615.831 73.2C615.831 78.6667 616.631 84 618.231 89.2C619.831 94.2667 622.165 98.8 625.231 102.8C628.431 106.8 632.365 110 637.031 112.4C641.698 114.8 647.031 116 653.031 116C659.298 116 664.765 114.8 669.431 112.4C674.098 109.867 677.965 106.533 681.031 102.4C684.098 98.2667 686.365 93.6667 687.831 88.6C689.431 83.4 690.231 78.1333 690.231 72.8C690.231 67.3333 689.431 62.0667 687.831 57C686.231 51.9333 683.831 47.4 680.631 43.4C677.431 39.2667 673.498 36.0667 668.831 33.8C664.165 31.5333 658.898 30.4 653.031 30.4C646.765 30.4 641.298 31.6 636.631 34C632.098 36.4 628.231 39.6667 625.031 43.8C621.965 47.8 619.631 52.4 618.031 57.6C616.565 62.6667 615.831 67.8667 615.831 73.2ZM827.003 43.6C826.603 42.9333 825.203 41.9333 822.803 40.6C820.403 39.1333 817.403 37.6 813.803 36C810.203 34.4 806.27 33 802.003 31.8C797.736 30.6 793.47 30 789.203 30C783.603 30 779.27 31 776.203 33C773.136 34.8667 771.603 37.8 771.603 41.8C771.603 45 772.736 47.5333 775.003 49.4C777.403 51.2667 780.803 52.9333 785.203 54.4C789.603 55.7333 795.003 57.3333 801.403 59.2C810.47 61.6 818.336 64.5333 825.003 68C831.67 71.3333 836.736 75.6667 840.203 81C843.803 86.3333 845.603 93.4 845.603 102.2C845.603 110.2 844.136 117 841.203 122.6C838.27 128.067 834.27 132.533 829.203 136C824.27 139.333 818.603 141.8 812.203 143.4C805.803 144.867 799.203 145.6 792.403 145.6C785.47 145.6 778.336 144.933 771.003 143.6C763.803 142.133 756.87 140.133 750.203 137.6C743.536 134.933 737.403 131.733 731.803 128L746.203 99.4C746.736 100.067 748.47 101.333 751.403 103.2C754.336 104.933 757.936 106.8 762.203 108.8C766.603 110.667 771.47 112.333 776.803 113.8C782.136 115.267 787.536 116 793.003 116C798.87 116 803.203 115.067 806.003 113.2C808.936 111.333 810.403 108.733 810.403 105.4C810.403 101.8 808.87 99 805.803 97C802.87 95 798.803 93.2 793.603 91.6C788.536 90 782.67 88.2 776.003 86.2C767.336 83.5333 760.136 80.5333 754.403 77.2C748.803 73.8667 744.603 69.8 741.803 65C739.136 60.2 737.803 54.2 737.803 47C737.803 37 740.136 28.6 744.803 21.8C749.603 14.8667 756.003 9.66666 764.003 6.2C772.003 2.6 780.736 0.799996 790.203 0.799996C796.87 0.799996 803.27 1.59999 809.403 3.19999C815.67 4.79999 821.47 6.79999 826.803 9.2C832.27 11.6 837.136 14 841.403 16.4L827.003 43.6Z" fill="white"/>
<path d="M5.2 46.4L6.13258 46.761L6.13449 46.756L5.2 46.4ZM19.2 23.6L18.4574 22.9302L18.4574 22.9302L19.2 23.6ZM41.6 7.39999L42.0138 8.31043L42.0251 8.30512L41.6 7.39999ZM106.2 9.8L105.692 10.6616L105.698 10.6646L106.2 9.8ZM128.2 32.2L128.773 33.0198L129.493 32.5166L129.087 31.7374L128.2 32.2ZM103 49.8L102.078 50.1881L102.558 51.3282L103.573 50.6198L103 49.8ZM94.4 38L93.7717 38.7779L93.7788 38.7837L93.7861 38.7893L94.4 38ZM82.8 32.2L82.5212 33.1603L82.5392 33.1656L82.5575 33.1701L82.8 32.2ZM54.4 34.2L54.8574 35.0893L54.8673 35.0842L54.8771 35.0788L54.4 34.2ZM42.8 44L43.6031 44.5958L43.6031 44.5958L42.8 44ZM36 57.8L36.9606 58.0781L36.9606 58.0781L36 57.8ZM36.4 89.2L37.3487 88.8838L37.3487 88.8838L36.4 89.2ZM43.8 103L43.0191 103.625L43.0254 103.633L43.0318 103.64L43.8 103ZM55.8 112.6L55.3427 113.489L55.3528 113.495L55.3631 113.5L55.8 112.6ZM83.4 114L83.707 114.952L83.707 114.952L83.4 114ZM94.8 107.8L95.4283 108.578L95.4317 108.575L94.8 107.8ZM103 96.4L103.508 95.5386L102.504 94.9469L102.072 96.0286L103 96.4ZM129.8 112.2L130.727 112.574L131.05 111.776L130.308 111.339L129.8 112.2ZM116 130L115.389 129.208L115.389 129.208L116 130ZM94.2 141.4L94.5019 142.353L94.5116 142.35L94.2 141.4ZM42 139L41.5528 139.894L41.5611 139.899L41.5695 139.903L42 139ZM19.8 122.2L19.0448 122.855L19.0514 122.863L19.0581 122.871L19.8 122.2ZM5.4 98.6L4.46484 98.9542L4.4681 98.9628L4.47152 98.9714L5.4 98.6ZM1.4 71.8C1.4 63.2596 2.9761 54.9152 6.13257 46.761L4.26743 46.039C1.0239 54.4181 -0.6 63.007 -0.6 71.8H1.4ZM6.13449 46.756C9.28963 38.4737 13.8905 30.9797 19.9426 24.2698L18.4574 22.9302C12.2429 29.8203 7.51037 37.5263 4.26551 46.044L6.13449 46.756ZM19.9426 24.2698C25.9789 17.5773 33.3317 12.2568 42.0138 8.31036L41.1862 6.48963C32.2683 10.5432 24.6877 16.0227 18.4574 22.9302L19.9426 24.2698ZM42.0251 8.30512C50.6733 4.2431 60.5247 2.19999 71.6 2.19999V0.199991C60.2753 0.199991 50.1267 2.29022 41.1749 6.49487L42.0251 8.30512ZM71.6 2.19999C84.7873 2.19999 96.1387 5.03404 105.692 10.6616L106.708 8.93837C96.7947 3.09928 85.0794 0.199991 71.6 0.199991V2.19999ZM105.698 10.6646C115.418 16.3128 122.61 23.6467 127.313 32.6626L129.087 31.7374C124.191 22.3533 116.716 14.7539 106.702 8.93537L105.698 10.6646ZM127.627 31.3802L102.427 48.9802L103.573 50.6198L128.773 33.0198L127.627 31.3802ZM103.922 49.4119C101.735 44.2197 98.7744 40.1355 95.0139 37.2106L93.7861 38.7893C97.2256 41.4645 99.9979 45.247 102.078 50.1881L103.922 49.4119ZM95.0283 37.2221C91.4501 34.332 87.4522 32.3323 83.0425 31.2299L82.5575 33.1701C86.6812 34.2011 90.4166 36.068 93.7717 38.7779L95.0283 37.2221ZM83.0788 31.2397C78.865 30.0163 74.771 29.4 70.8 29.4V31.4C74.5624 31.4 78.4684 31.9837 82.5212 33.1603L83.0788 31.2397ZM70.8 29.4C64.3967 29.4 58.7603 30.6951 53.9229 33.3211L54.8771 35.0788C59.373 32.6382 64.6699 31.4 70.8 31.4V29.4ZM53.9427 33.3107C49.1426 35.7793 45.1567 39.1453 41.9969 43.4042L43.6031 44.5958C46.5767 40.588 50.3241 37.4207 54.8574 35.0893L53.9427 33.3107ZM41.9969 43.4042C38.8575 47.6356 36.5384 52.3437 35.0394 57.5219L36.9606 58.0781C38.3949 53.123 40.6092 48.6311 43.6031 44.5958L41.9969 43.4042ZM35.0394 57.5219C33.5477 62.6752 32.8 67.8354 32.8 73H34.8C34.8 68.0312 35.519 63.0581 36.9606 58.0781L35.0394 57.5219ZM32.8 73C32.8 78.7051 33.6833 84.212 35.4513 89.5162L37.3487 88.8838C35.6501 83.788 34.8 78.4949 34.8 73H32.8ZM35.4513 89.5162C37.2193 94.8203 39.7404 99.5263 43.0191 103.625L44.5809 102.375C41.4596 98.4737 39.0473 93.9797 37.3487 88.8838L35.4513 89.5162ZM43.0318 103.64C46.4517 107.744 50.5577 111.028 55.3427 113.489L56.2574 111.711C51.709 109.372 47.815 106.256 44.5682 102.36L43.0318 103.64ZM55.3631 113.5C60.1765 115.837 65.4609 117 71.2 117V115C65.7391 115 60.7568 113.896 56.2369 111.7L55.3631 113.5ZM71.2 117C75.3128 117 79.483 116.314 83.707 114.952L83.093 113.048C79.0504 114.352 75.0872 115 71.2 115V117ZM83.707 114.952C87.9603 113.58 91.8687 111.453 95.4283 108.578L94.1717 107.022C90.798 109.747 87.1064 111.754 83.093 113.048L83.707 114.952ZM95.4317 108.575C99.174 105.526 102.004 101.582 103.928 96.7714L102.072 96.0286C100.263 100.551 97.626 104.207 94.1683 107.025L95.4317 108.575ZM102.492 97.2614L129.292 113.061L130.308 111.339L103.508 95.5386L102.492 97.2614ZM128.873 111.826C126.145 118.581 121.66 124.374 115.389 129.208L116.611 130.792C123.14 125.759 127.855 119.686 130.727 112.574L128.873 111.826ZM115.389 129.208C109.085 134.068 101.92 137.816 93.8885 140.45L94.5116 142.35C102.746 139.65 110.115 135.799 116.611 130.792L115.389 129.208ZM93.8981 140.447C85.9892 142.951 78.1576 144.2 70.4 144.2V146.2C78.3757 146.2 86.4108 144.916 94.5019 142.353L93.8981 140.447ZM70.4 144.2C60.2718 144.2 50.9535 142.162 42.4305 138.097L41.5695 139.903C50.3798 144.104 59.9949 146.2 70.4 146.2V144.2ZM42.4472 138.106C34.0228 133.893 26.7233 128.369 20.5419 121.529L19.0581 122.871C25.41 129.898 32.9105 135.573 41.5528 139.894L42.4472 138.106ZM20.5552 121.545C14.4949 114.562 9.75356 106.791 6.32848 98.2286L4.47152 98.9714C7.97978 107.742 12.8384 115.705 19.0448 122.855L20.5552 121.545ZM6.33516 98.2458C3.04305 89.5546 1.4 80.7411 1.4 71.8H-0.6C-0.6 80.9923 1.09029 90.0454 4.46484 98.9542L6.33516 98.2458ZM177.542 139.2L177.106 140.1L177.115 140.104L177.123 140.108L177.542 139.2ZM155.342 122.8L154.593 123.463L154.6 123.47L154.607 123.478L155.342 122.8ZM141.142 99.6L140.209 99.959L140.211 99.9638L141.142 99.6ZM141.342 45.8L140.421 45.4113L140.416 45.4236L141.342 45.8ZM156.142 23L155.414 22.3146L155.414 22.3151L156.142 23ZM178.742 6.99999L178.335 6.08676L178.335 6.08676L178.742 6.99999ZM235.742 7.39999L235.306 8.29998L235.315 8.30404L235.323 8.30795L235.742 7.39999ZM257.942 23.8L257.193 24.4626L257.2 24.4705L257.942 23.8ZM272.342 47.2L271.409 47.559L271.411 47.5638L272.342 47.2ZM272.142 100.4L271.216 100.024L271.216 100.024L272.142 100.4ZM257.342 123.4L258.064 124.093L258.07 124.085L257.342 123.4ZM234.742 139.4L235.155 140.311L235.161 140.308L234.742 139.4ZM171.942 89.2L170.986 89.4941L170.989 89.5011L171.942 89.2ZM178.942 102.8L178.149 103.408L178.155 103.417L178.161 103.425L178.942 102.8ZM190.742 112.4L191.2 111.511L190.742 112.4ZM223.142 112.4L223.6 113.289L223.609 113.284L223.619 113.279L223.142 112.4ZM234.742 102.4L235.545 102.996L235.545 102.996L234.742 102.4ZM241.542 88.6L240.586 88.3059L240.584 88.3139L240.582 88.3219L241.542 88.6ZM241.542 57L240.589 57.3011L240.589 57.3011L241.542 57ZM234.342 43.4L233.551 44.0122L233.556 44.0185L233.561 44.0247L234.342 43.4ZM222.542 33.8L222.105 34.6995L222.105 34.6995L222.542 33.8ZM190.342 34L189.885 33.1106L189.874 33.1162L190.342 34ZM178.742 43.8L177.951 43.1878L177.949 43.1916L178.742 43.8ZM171.742 57.6L170.786 57.3059L170.784 57.3139L170.782 57.3219L171.742 57.6ZM206.542 144.2C196.003 144.2 186.482 142.225 177.961 138.292L177.123 140.108C185.936 144.175 195.748 146.2 206.542 146.2V144.2ZM177.978 138.3C169.555 134.22 162.257 128.828 156.078 122.122L154.607 123.478C160.961 130.372 168.463 135.913 177.106 140.1L177.978 138.3ZM156.091 122.137C150.035 115.291 145.364 107.659 142.074 99.2361L140.211 99.9638C143.587 108.608 148.383 116.442 154.593 123.463L156.091 122.137ZM142.076 99.241C138.786 90.6878 137.142 81.8761 137.142 72.8H135.142C135.142 82.1239 136.832 91.1788 140.209 99.959L142.076 99.241ZM137.142 72.8C137.142 63.4587 138.852 54.5868 142.269 46.1764L140.416 45.4236C136.899 54.0798 135.142 63.208 135.142 72.8H137.142ZM142.264 46.1887C145.818 37.7634 150.686 30.264 156.871 23.6849L155.414 22.3151C149.065 29.0693 144.066 36.7699 140.421 45.4113L142.264 46.1887ZM156.87 23.6854C163.178 16.9834 170.602 11.7268 179.15 7.91322L178.335 6.08676C169.549 10.0065 161.906 15.4166 155.414 22.3146L156.87 23.6854ZM179.15 7.91322C187.678 4.10832 197.004 2.19999 207.142 2.19999V0.199991C196.747 0.199991 187.14 2.15833 178.335 6.08676L179.15 7.91322ZM207.142 2.19999C217.541 2.19999 226.923 4.23946 235.306 8.29998L236.178 6.50001C227.494 2.29385 217.81 0.199991 207.142 0.199991V2.19999ZM235.323 8.30795C243.868 12.2517 251.155 17.6363 257.193 24.4626L258.691 23.1374C252.463 16.0971 244.95 10.5482 236.161 6.49203L235.323 8.30795ZM257.2 24.4705C263.385 31.3133 268.12 39.0078 271.409 47.559L273.276 46.841C269.898 38.0589 265.033 30.1534 258.684 23.1295L257.2 24.4705ZM271.411 47.5638C274.7 55.9842 276.342 64.5944 276.342 73.4H278.342C278.342 64.339 276.651 55.4824 273.274 46.8361L271.411 47.5638ZM276.342 73.4C276.342 82.7413 274.632 91.6132 271.216 100.024L273.069 100.776C276.585 92.1202 278.342 82.992 278.342 73.4H276.342ZM271.216 100.024C267.796 108.441 262.931 116.003 256.614 122.715L258.07 124.085C264.554 117.197 269.555 109.426 273.069 100.776L271.216 100.024ZM256.621 122.707C250.31 129.281 242.88 134.543 234.323 138.492L235.161 140.308C243.937 136.257 251.574 130.852 258.064 124.093L256.621 122.707ZM234.329 138.489C225.938 142.292 216.68 144.2 206.542 144.2V146.2C216.937 146.2 226.48 144.242 235.155 140.311L234.329 138.489ZM168.542 73.2C168.542 78.7659 169.357 84.1983 170.986 89.4941L172.898 88.9059C171.327 83.8016 170.542 78.5675 170.542 73.2H168.542ZM170.989 89.5011C172.622 94.6727 175.007 99.3112 178.149 103.408L179.736 102.192C176.744 98.2888 174.463 93.8606 172.896 88.8989L170.989 89.5011ZM178.161 103.425C181.452 107.537 185.496 110.826 190.285 113.289L191.2 111.511C186.655 109.174 182.833 106.063 179.723 102.175L178.161 103.425ZM190.285 113.289C195.112 115.772 200.606 117 206.742 117V115C200.878 115 195.706 113.828 191.2 111.511L190.285 113.289ZM206.742 117C213.137 117 218.766 115.775 223.6 113.289L222.685 111.511C218.185 113.825 212.88 115 206.742 115V117ZM223.619 113.279C228.41 110.678 232.389 107.25 235.545 102.996L233.939 101.804C230.962 105.817 227.208 109.055 222.665 111.521L223.619 113.279ZM235.545 102.996C238.685 98.7644 241.004 94.0563 242.503 88.8781L240.582 88.3219C239.147 93.277 236.933 97.7689 233.939 101.804L235.545 102.996ZM242.498 88.8941C244.127 83.6007 244.942 78.235 244.942 72.8H242.942C242.942 78.0316 242.158 83.1992 240.586 88.3059L242.498 88.8941ZM244.942 72.8C244.942 67.2342 244.127 61.8657 242.496 56.6989L240.589 57.3011C242.157 62.2676 242.942 67.4325 242.942 72.8H244.942ZM242.496 56.6989C240.86 51.5191 238.403 46.8752 235.123 42.7753L233.561 44.0247C236.681 47.9248 239.024 52.3476 240.589 57.3011L242.496 56.6989ZM235.133 42.7878C231.839 38.5337 227.785 35.2349 222.979 32.9005L222.105 34.6995C226.632 36.8984 230.445 39.9996 233.551 44.0122L235.133 42.7878ZM222.979 32.9005C218.159 30.5595 212.74 29.4 206.742 29.4V31.4C212.477 31.4 217.592 32.5072 222.105 34.6995L222.979 32.9005ZM206.742 29.4C200.347 29.4 194.718 30.6251 189.885 33.1107L190.8 34.8893C195.3 32.5749 200.604 31.4 206.742 31.4V29.4ZM189.874 33.1162C185.213 35.5841 181.237 38.9442 177.951 43.1878L179.533 44.4122C182.648 40.3891 186.405 37.2159 190.81 34.8838L189.874 33.1162ZM177.949 43.1916C174.804 47.2931 172.419 52.0014 170.786 57.3059L172.698 57.8941C174.266 52.7986 176.547 48.3069 179.536 44.4084L177.949 43.1916ZM170.782 57.3219C169.289 62.48 168.542 67.7736 168.542 73.2H170.542C170.542 67.9597 171.263 62.8533 172.703 57.8781L170.782 57.3219ZM380.714 43.6L379.857 44.1145L380.769 45.6344L381.598 44.0679L380.714 43.6ZM376.514 40.6L375.993 41.4533L376.01 41.4641L376.028 41.4742L376.514 40.6ZM367.514 36L367.92 35.0862L367.92 35.0862L367.514 36ZM329.914 33L330.434 33.8542L330.447 33.8461L330.46 33.8376L329.914 33ZM328.714 49.4L328.078 50.1719L328.089 50.1808L328.1 50.1893L328.714 49.4ZM338.914 54.4L338.598 55.3487L338.611 55.353L338.624 55.357L338.914 54.4ZM355.114 59.2L354.834 60.16L354.846 60.1635L354.858 60.1667L355.114 59.2ZM378.714 68L378.253 68.8872L378.26 68.8909L378.267 68.8944L378.714 68ZM393.914 81L393.076 81.545L393.08 81.5523L393.085 81.5595L393.914 81ZM394.914 122.6L395.795 123.073L395.8 123.064L394.914 122.6ZM382.914 136L383.474 136.829L383.479 136.825L382.914 136ZM365.914 143.4L366.137 144.375L366.147 144.373L366.157 144.37L365.914 143.4ZM324.714 143.6L324.514 144.58L324.525 144.582L324.535 144.584L324.714 143.6ZM303.914 137.6L303.543 138.528L303.551 138.532L303.559 138.535L303.914 137.6ZM285.514 128L284.621 127.55L284.223 128.341L284.959 128.832L285.514 128ZM299.914 99.4L300.695 98.7753L299.722 97.5586L299.021 98.9503L299.914 99.4ZM305.114 103.2L304.577 104.044L304.591 104.053L304.605 104.061L305.114 103.2ZM315.914 108.8L315.49 109.705L315.506 109.713L315.524 109.721L315.914 108.8ZM330.514 113.8L330.779 112.836L330.779 112.836L330.514 113.8ZM359.714 113.2L359.177 112.356L359.168 112.362L359.159 112.368L359.714 113.2ZM359.514 97L358.951 97.8262L358.959 97.832L358.968 97.8376L359.514 97ZM347.314 91.6L347.013 92.5536L347.02 92.5558L347.314 91.6ZM329.714 86.2L329.42 87.1558L329.427 87.1578L329.714 86.2ZM308.114 77.2L307.603 78.0593L307.611 78.0645L308.114 77.2ZM295.514 65L294.64 65.4856L294.645 65.4948L294.65 65.5039L295.514 65ZM298.514 21.8L297.692 21.2308L297.69 21.2342L298.514 21.8ZM317.714 6.2L318.112 7.11764L318.124 7.11192L317.714 6.2ZM363.114 3.19999L362.862 4.16762L362.867 4.16891L363.114 3.19999ZM380.514 9.2L380.104 10.112L380.112 10.1156L380.514 9.2ZM395.114 16.4L395.998 16.8679L396.454 16.0063L395.604 15.5284L395.114 16.4ZM381.572 43.0855C381.256 42.5603 380.654 42.0424 379.945 41.5363C379.202 41.0054 378.216 40.4014 377 39.7258L376.028 41.4742C377.212 42.1319 378.126 42.6946 378.783 43.1637C379.474 43.6576 379.772 43.973 379.857 44.1145L381.572 43.0855ZM377.036 39.7467C374.587 38.2504 371.546 36.6974 367.92 35.0862L367.108 36.9138C370.683 38.5026 373.641 40.0162 375.993 41.4533L377.036 39.7467ZM367.92 35.0862C364.271 33.4644 360.292 32.0488 355.985 30.8373L355.443 32.7626C359.669 33.9512 363.557 35.3356 367.108 36.9138L367.92 35.0862ZM355.985 30.8373C351.633 29.6135 347.276 29 342.914 29V31C347.086 31 351.261 31.5865 355.443 32.7626L355.985 30.8373ZM342.914 29C337.216 29 332.662 30.0142 329.368 32.1624L330.46 33.8376C333.3 31.9858 337.413 31 342.914 31V29ZM329.394 32.1458C325.991 34.2174 324.314 37.4987 324.314 41.8H326.314C326.314 38.1013 327.704 35.5159 330.434 33.8542L329.394 32.1458ZM324.314 41.8C324.314 45.2683 325.558 48.0967 328.078 50.1719L329.35 48.6281C327.336 46.9699 326.314 44.7317 326.314 41.8H324.314ZM328.1 50.1893C330.624 52.1521 334.141 53.863 338.598 55.3487L339.23 53.4513C334.887 52.0037 331.604 50.3812 329.328 48.6106L328.1 50.1893ZM338.624 55.357C343.029 56.6917 348.432 58.2927 354.834 60.16L355.394 58.24C348.996 56.3739 343.6 54.775 339.204 53.443L338.624 55.357ZM354.858 60.1667C363.87 62.5523 371.665 65.4617 378.253 68.8872L379.175 67.1128C372.43 63.605 364.491 60.6477 355.37 58.2333L354.858 60.1667ZM378.267 68.8944C384.802 72.162 389.721 76.3848 393.076 81.545L394.753 80.455C391.173 74.9485 385.96 70.5047 379.161 67.1056L378.267 68.8944ZM393.085 81.5595C396.54 86.677 398.314 93.5281 398.314 102.2H400.314C400.314 93.2719 398.489 85.9897 394.743 80.4405L393.085 81.5595ZM398.314 102.2C398.314 110.08 396.869 116.712 394.028 122.136L395.8 123.064C398.826 117.288 400.314 110.32 400.314 102.2H398.314ZM394.033 122.127C391.174 127.454 387.282 131.799 382.349 135.175L383.479 136.825C388.679 133.267 392.787 128.679 395.795 123.073L394.033 122.127ZM382.354 135.171C377.527 138.433 371.97 140.855 365.672 142.43L366.157 144.37C372.658 142.745 378.434 140.234 383.474 136.829L382.354 135.171ZM365.691 142.425C359.367 143.875 352.842 144.6 346.114 144.6V146.6C352.987 146.6 359.662 145.859 366.137 144.375L365.691 142.425ZM346.114 144.6C339.245 144.6 332.172 143.94 324.893 142.616L324.535 144.584C331.923 145.927 339.116 146.6 346.114 146.6V144.6ZM324.914 142.62C317.765 141.164 310.884 139.179 304.269 136.665L303.559 138.535C310.278 141.088 317.263 143.103 324.514 144.58L324.914 142.62ZM304.285 136.672C297.679 134.029 291.607 130.86 286.069 127.168L284.959 128.832C290.621 132.606 296.816 135.838 303.543 138.528L304.285 136.672ZM286.407 128.45L300.807 99.8497L299.021 98.9503L284.621 127.55L286.407 128.45ZM299.133 100.025C299.493 100.474 300.162 101.027 301.024 101.657C301.915 102.309 303.102 103.105 304.577 104.044L305.651 102.356C304.193 101.428 303.046 100.658 302.204 100.043C301.333 99.4062 300.869 98.9923 300.695 98.7753L299.133 100.025ZM304.605 104.061C307.574 105.815 311.204 107.697 315.49 109.705L316.338 107.895C312.091 105.903 308.521 104.051 305.623 102.339L304.605 104.061ZM315.524 109.721C319.97 111.607 324.879 113.288 330.249 114.764L330.779 112.836C325.482 111.379 320.658 109.726 316.305 107.879L315.524 109.721ZM330.249 114.764C335.668 116.254 341.157 117 346.714 117V115C341.338 115 336.027 114.279 330.779 112.836L330.249 114.764ZM346.714 117C352.649 117 357.223 116.063 360.269 114.032L359.159 112.368C356.606 114.07 352.513 115 346.714 115V117ZM360.251 114.044C363.458 112.003 365.114 109.093 365.114 105.4H363.114C363.114 108.374 361.837 110.664 359.177 112.356L360.251 114.044ZM365.114 105.4C365.114 101.455 363.404 98.3432 360.06 96.1624L358.968 97.8376C361.757 99.6568 363.114 102.145 363.114 105.4H365.114ZM360.077 96.1738C357.03 94.0958 352.859 92.2598 347.608 90.6442L347.02 92.5558C352.169 94.1402 356.132 95.9042 358.951 97.8262L360.077 96.1738ZM347.615 90.6464C342.543 89.0446 336.671 87.2432 330.001 85.2422L329.427 87.1578C336.09 89.1568 341.952 90.9554 347.013 92.5536L347.615 90.6464ZM330.008 85.2442C321.39 82.5924 314.265 79.6195 308.617 76.3355L307.611 78.0645C313.43 81.4472 320.705 84.4743 329.42 87.1558L330.008 85.2442ZM308.626 76.3407C303.146 73.079 299.079 69.1262 296.378 64.4961L294.65 65.5039C297.549 70.4738 301.882 74.6543 307.603 78.0593L308.626 76.3407ZM296.388 64.5144C293.826 59.9021 292.514 54.0813 292.514 47H290.514C290.514 54.3187 291.869 60.4979 294.64 65.4856L296.388 64.5144ZM292.514 47C292.514 37.1584 294.809 28.9667 299.339 22.3658L297.69 21.2342C292.886 28.2333 290.514 36.8416 290.514 47H292.514ZM299.336 22.3692C304.026 15.5947 310.277 10.5126 318.112 7.11755L317.316 5.28244C309.151 8.82067 302.602 14.1386 297.692 21.2308L299.336 22.3692ZM318.124 7.11192C325.985 3.57446 334.578 1.8 343.914 1.8V-0.200004C334.317 -0.200004 325.443 1.62553 317.304 5.28808L318.124 7.11192ZM343.914 1.8C350.5 1.8 356.815 2.5902 362.862 4.16761L363.366 2.23237C357.147 0.609792 350.662 -0.200004 343.914 -0.200004V1.8ZM362.867 4.16891C369.083 5.75612 374.828 7.73791 380.104 10.1119L380.924 8.28807C375.533 5.86208 369.678 3.84386 363.361 2.23107L362.867 4.16891ZM380.112 10.1156C385.555 12.5052 390.391 14.8907 394.624 17.2716L395.604 15.5284C391.304 13.1092 386.407 10.6948 380.916 8.28435L380.112 10.1156ZM394.23 15.9321L379.83 43.1321L381.598 44.0679L395.998 16.8679L394.23 15.9321ZM530.561 144H529.561V145H530.561V144ZM530.561 59.4H531.561L529.665 58.9551L530.561 59.4ZM499.961 121V122H500.581L500.857 121.445L499.961 121ZM481.961 121L481.065 121.445L481.341 122H481.961V121ZM451.361 59.4L452.257 58.9551L450.361 59.4H451.361ZM451.361 144V145H452.361V144H451.361ZM418.561 144H417.561V145H418.561V144ZM418.561 1.99999V0.999992H417.561V1.99999H418.561ZM454.161 1.99999L455.057 1.55568L454.781 0.999992H454.161V1.99999ZM490.961 76.2L490.065 76.6443L490.959 78.4458L491.856 76.6462L490.961 76.2ZM527.961 1.99999V0.999992H527.342L527.066 1.55374L527.961 1.99999ZM563.361 1.99999H564.361V0.999992H563.361V1.99999ZM563.361 144V145H564.361V144H563.361ZM531.561 144V59.4H529.561V144H531.561ZM529.665 58.9551L499.065 120.555L500.857 121.445L531.457 59.8449L529.665 58.9551ZM499.961 120H481.961V122H499.961V120ZM482.857 120.555L452.257 58.9551L450.465 59.8449L481.065 121.445L482.857 120.555ZM450.361 59.4V144H452.361V59.4H450.361ZM451.361 143H418.561V145H451.361V143ZM419.561 144V1.99999H417.561V144H419.561ZM418.561 2.99999H454.161V0.999992H418.561V2.99999ZM453.265 2.44431L490.065 76.6443L491.857 75.7557L455.057 1.55568L453.265 2.44431ZM491.856 76.6462L528.856 2.44624L527.066 1.55374L490.066 75.7537L491.856 76.6462ZM527.961 2.99999H563.361V0.999992H527.961V2.99999ZM562.361 1.99999V144H564.361V1.99999H562.361ZM563.361 143H530.561V145H563.361V143ZM623.831 139.2L623.395 140.1L623.404 140.104L623.412 140.108L623.831 139.2ZM601.631 122.8L600.882 123.463L600.889 123.47L600.896 123.478L601.631 122.8ZM587.431 99.6L586.498 99.959L586.5 99.9638L587.431 99.6ZM587.631 45.8L586.71 45.4113L586.705 45.4236L587.631 45.8ZM602.431 23L601.703 22.3146L601.703 22.3151L602.431 23ZM625.031 6.99999L624.624 6.08676L624.624 6.08676L625.031 6.99999ZM682.031 7.39999L681.595 8.29998L681.604 8.30404L681.612 8.30795L682.031 7.39999ZM704.231 23.8L703.482 24.4626L703.489 24.4705L704.231 23.8ZM718.631 47.2L717.698 47.559L717.7 47.5638L718.631 47.2ZM718.431 100.4L717.505 100.024L717.505 100.024L718.431 100.4ZM703.631 123.4L704.353 124.093L704.359 124.085L703.631 123.4ZM681.031 139.4L681.444 140.311L681.45 140.308L681.031 139.4ZM618.231 89.2L617.275 89.4941L617.278 89.5011L618.231 89.2ZM625.231 102.8L624.438 103.408L624.444 103.417L624.45 103.425L625.231 102.8ZM637.031 112.4L637.489 111.511L637.031 112.4ZM669.431 112.4L669.889 113.289L669.899 113.284L669.908 113.279L669.431 112.4ZM681.031 102.4L681.834 102.996L681.834 102.996L681.031 102.4ZM687.831 88.6L686.875 88.3059L686.873 88.3139L686.871 88.3219L687.831 88.6ZM687.831 57L686.878 57.3011L686.878 57.3011L687.831 57ZM680.631 43.4L679.841 44.0122L679.845 44.0185L679.85 44.0247L680.631 43.4ZM668.831 33.8L668.394 34.6995L668.394 34.6995L668.831 33.8ZM636.631 34L636.174 33.1106L636.163 33.1162L636.631 34ZM625.031 43.8L624.241 43.1878L624.238 43.1916L625.031 43.8ZM618.031 57.6L617.075 57.3059L617.073 57.3139L617.071 57.3219L618.031 57.6ZM652.831 144.2C642.292 144.2 632.771 142.225 624.25 138.292L623.412 140.108C632.225 144.175 642.037 146.2 652.831 146.2V144.2ZM624.267 138.3C615.844 134.22 608.546 128.828 602.367 122.122L600.896 123.478C607.25 130.372 614.752 135.913 623.395 140.1L624.267 138.3ZM602.38 122.137C596.324 115.291 591.653 107.659 588.363 99.2361L586.5 99.9638C589.876 108.608 594.672 116.442 600.882 123.463L602.38 122.137ZM588.365 99.241C585.075 90.6878 583.431 81.8761 583.431 72.8H581.431C581.431 82.1239 583.121 91.1788 586.498 99.959L588.365 99.241ZM583.431 72.8C583.431 63.4587 585.141 54.5868 588.558 46.1764L586.705 45.4236C583.188 54.0798 581.431 63.208 581.431 72.8H583.431ZM588.553 46.1887C592.107 37.7634 596.976 30.264 603.16 23.6849L601.703 22.3151C595.354 29.0693 590.355 36.7699 586.71 45.4113L588.553 46.1887ZM603.159 23.6854C609.467 16.9834 616.891 11.7268 625.439 7.91322L624.624 6.08676C615.838 10.0065 608.195 15.4166 601.703 22.3146L603.159 23.6854ZM625.439 7.91322C633.967 4.10832 643.293 2.19999 653.431 2.19999V0.199991C643.036 0.199991 633.429 2.15833 624.624 6.08676L625.439 7.91322ZM653.431 2.19999C663.831 2.19999 673.212 4.23946 681.595 8.29998L682.467 6.50001C673.784 2.29385 664.099 0.199991 653.431 0.199991V2.19999ZM681.612 8.30795C690.157 12.2517 697.444 17.6363 703.482 24.4626L704.98 23.1374C698.752 16.0971 691.239 10.5482 682.45 6.49203L681.612 8.30795ZM703.489 24.4705C709.674 31.3133 714.409 39.0078 717.698 47.559L719.565 46.841C716.187 38.0589 711.322 30.1534 704.973 23.1295L703.489 24.4705ZM717.7 47.5638C720.989 55.9842 722.631 64.5944 722.631 73.4H724.631C724.631 64.339 722.94 55.4824 719.563 46.8361L717.7 47.5638ZM722.631 73.4C722.631 82.7413 720.922 91.6132 717.505 100.024L719.358 100.776C722.874 92.1202 724.631 82.992 724.631 73.4H722.631ZM717.505 100.024C714.085 108.441 709.22 116.003 702.903 122.715L704.359 124.085C710.843 117.197 715.844 109.426 719.358 100.776L717.505 100.024ZM702.91 122.707C696.599 129.281 689.169 134.543 680.612 138.492L681.45 140.308C690.227 136.257 697.863 130.852 704.353 124.093L702.91 122.707ZM680.619 138.489C672.227 142.292 662.969 144.2 652.831 144.2V146.2C663.226 146.2 672.769 144.242 681.444 140.311L680.619 138.489ZM614.831 73.2C614.831 78.7659 615.646 84.1983 617.275 89.4941L619.187 88.9059C617.616 83.8016 616.831 78.5675 616.831 73.2H614.831ZM617.278 89.5011C618.911 94.6727 621.296 99.3112 624.438 103.408L626.025 102.192C623.033 98.2888 620.752 93.8606 619.185 88.8989L617.278 89.5011ZM624.45 103.425C627.741 107.537 631.785 110.826 636.574 113.289L637.489 111.511C632.944 109.174 629.122 106.063 626.012 102.175L624.45 103.425ZM636.574 113.289C641.401 115.772 646.895 117 653.031 117V115C647.167 115 641.995 113.828 637.489 111.511L636.574 113.289ZM653.031 117C659.426 117 665.055 115.775 669.889 113.289L668.974 111.511C664.474 113.825 659.17 115 653.031 115V117ZM669.908 113.279C674.699 110.678 678.678 107.25 681.834 102.996L680.228 101.804C677.251 105.817 673.497 109.055 668.954 111.521L669.908 113.279ZM681.834 102.996C684.974 98.7644 687.293 94.0563 688.792 88.8781L686.871 88.3219C685.436 93.277 683.222 97.7689 680.228 101.804L681.834 102.996ZM688.787 88.8941C690.416 83.6007 691.231 78.235 691.231 72.8H689.231C689.231 78.0316 688.447 83.1992 686.875 88.3059L688.787 88.8941ZM691.231 72.8C691.231 67.2342 690.416 61.8657 688.785 56.6989L686.878 57.3011C688.446 62.2676 689.231 67.4325 689.231 72.8H691.231ZM688.785 56.6989C687.149 51.5191 684.692 46.8752 681.412 42.7753L679.85 44.0247C682.97 47.9248 685.313 52.3476 686.878 57.3011L688.785 56.6989ZM681.422 42.7878C678.128 38.5337 674.074 35.2349 669.268 32.9005L668.394 34.6995C672.921 36.8984 676.734 39.9996 679.841 44.0122L681.422 42.7878ZM669.268 32.9005C664.448 30.5595 659.029 29.4 653.031 29.4V31.4C658.766 31.4 663.881 32.5072 668.394 34.6995L669.268 32.9005ZM653.031 29.4C646.636 29.4 641.007 30.6251 636.174 33.1107L637.089 34.8893C641.589 32.5749 646.893 31.4 653.031 31.4V29.4ZM636.163 33.1162C631.502 35.5841 627.526 38.9442 624.241 43.1878L625.822 44.4122C628.937 40.3891 632.694 37.2159 637.099 34.8838L636.163 33.1162ZM624.238 43.1916C621.093 47.2931 618.708 52.0014 617.075 57.3059L618.987 57.8941C620.555 52.7986 622.836 48.3069 625.825 44.4084L624.238 43.1916ZM617.071 57.3219C615.578 62.48 614.831 67.7736 614.831 73.2H616.831C616.831 67.9597 617.552 62.8533 618.992 57.8781L617.071 57.3219ZM827.003 43.6L826.146 44.1145L827.058 45.6344L827.887 44.0679L827.003 43.6ZM822.803 40.6L822.282 41.4533L822.299 41.4641L822.317 41.4742L822.803 40.6ZM813.803 36L814.209 35.0862L814.209 35.0862L813.803 36ZM776.203 33L776.723 33.8542L776.736 33.8461L776.749 33.8376L776.203 33ZM775.003 49.4L774.367 50.1719L774.378 50.1808L774.389 50.1893L775.003 49.4ZM785.203 54.4L784.887 55.3487L784.9 55.353L784.913 55.357L785.203 54.4ZM801.403 59.2L801.123 60.16L801.135 60.1635L801.147 60.1667L801.403 59.2ZM825.003 68L824.542 68.8872L824.549 68.8909L824.556 68.8944L825.003 68ZM840.203 81L839.365 81.545L839.369 81.5523L839.374 81.5595L840.203 81ZM841.203 122.6L842.084 123.073L842.089 123.064L841.203 122.6ZM829.203 136L829.763 136.829L829.768 136.825L829.203 136ZM812.203 143.4L812.427 144.375L812.436 144.373L812.446 144.37L812.203 143.4ZM771.003 143.6L770.804 144.58L770.814 144.582L770.824 144.584L771.003 143.6ZM750.203 137.6L749.832 138.528L749.84 138.532L749.848 138.535L750.203 137.6ZM731.803 128L730.91 127.55L730.512 128.341L731.248 128.832L731.803 128ZM746.203 99.4L746.984 98.7753L746.011 97.5586L745.31 98.9503L746.203 99.4ZM751.403 103.2L750.866 104.044L750.88 104.053L750.894 104.061L751.403 103.2ZM762.203 108.8L761.779 109.705L761.795 109.713L761.813 109.721L762.203 108.8ZM776.803 113.8L777.068 112.836L777.068 112.836L776.803 113.8ZM806.003 113.2L805.466 112.356L805.457 112.362L805.448 112.368L806.003 113.2ZM805.803 97L805.24 97.8262L805.248 97.832L805.257 97.8376L805.803 97ZM793.603 91.6L793.302 92.5536L793.309 92.5558L793.603 91.6ZM776.003 86.2L775.709 87.1558L775.716 87.1578L776.003 86.2ZM754.403 77.2L753.892 78.0593L753.901 78.0645L754.403 77.2ZM741.803 65L740.929 65.4856L740.934 65.4948L740.939 65.5039L741.803 65ZM744.803 21.8L743.981 21.2308L743.979 21.2342L744.803 21.8ZM764.003 6.2L764.401 7.11764L764.413 7.11192L764.003 6.2ZM809.403 3.19999L809.151 4.16762L809.156 4.16891L809.403 3.19999ZM826.803 9.2L826.393 10.112L826.401 10.1156L826.803 9.2ZM841.403 16.4L842.287 16.8679L842.743 16.0063L841.893 15.5284L841.403 16.4ZM827.861 43.0855C827.546 42.5603 826.943 42.0424 826.234 41.5363C825.491 41.0054 824.505 40.4014 823.289 39.7258L822.317 41.4742C823.501 42.1319 824.415 42.6946 825.072 43.1637C825.763 43.6576 826.061 43.973 826.146 44.1145L827.861 43.0855ZM823.325 39.7467C820.876 38.2504 817.835 36.6974 814.209 35.0862L813.397 36.9138C816.972 38.5026 819.93 40.0162 822.282 41.4533L823.325 39.7467ZM814.209 35.0862C810.56 33.4644 806.581 32.0488 802.274 30.8373L801.732 32.7626C805.958 33.9512 809.846 35.3356 813.397 36.9138L814.209 35.0862ZM802.274 30.8373C797.923 29.6135 793.565 29 789.203 29V31C793.375 31 797.55 31.5865 801.732 32.7626L802.274 30.8373ZM789.203 29C783.505 29 778.951 30.0142 775.657 32.1624L776.749 33.8376C779.589 31.9858 783.702 31 789.203 31V29ZM775.683 32.1458C772.28 34.2174 770.603 37.4987 770.603 41.8H772.603C772.603 38.1013 773.993 35.5159 776.723 33.8542L775.683 32.1458ZM770.603 41.8C770.603 45.2683 771.848 48.0967 774.367 50.1719L775.639 48.6281C773.625 46.9699 772.603 44.7317 772.603 41.8H770.603ZM774.389 50.1893C776.913 52.1521 780.43 53.863 784.887 55.3487L785.519 53.4513C781.176 52.0037 777.894 50.3812 775.617 48.6106L774.389 50.1893ZM784.913 55.357C789.318 56.6917 794.721 58.2927 801.123 60.16L801.683 58.24C795.285 56.3739 789.889 54.775 785.493 53.443L784.913 55.357ZM801.147 60.1667C810.159 62.5523 817.954 65.4617 824.542 68.8872L825.464 67.1128C818.719 63.605 810.78 60.6477 801.659 58.2333L801.147 60.1667ZM824.556 68.8944C831.091 72.162 836.011 76.3848 839.365 81.545L841.042 80.455C837.462 74.9485 832.249 70.5047 825.45 67.1056L824.556 68.8944ZM839.374 81.5595C842.829 86.677 844.603 93.5281 844.603 102.2H846.603C846.603 93.2719 844.778 85.9897 841.032 80.4405L839.374 81.5595ZM844.603 102.2C844.603 110.08 843.158 116.712 840.317 122.136L842.089 123.064C845.115 117.288 846.603 110.32 846.603 102.2H844.603ZM840.322 122.127C837.464 127.454 833.571 131.799 828.638 135.175L829.768 136.825C834.968 133.267 839.076 128.679 842.084 123.073L840.322 122.127ZM828.643 135.171C823.817 138.433 818.26 140.855 811.961 142.43L812.446 144.37C818.947 142.745 824.723 140.234 829.763 136.829L828.643 135.171ZM811.98 142.425C805.656 143.875 799.131 144.6 792.403 144.6V146.6C799.276 146.6 805.951 145.859 812.427 144.375L811.98 142.425ZM792.403 144.6C785.534 144.6 778.461 143.94 771.182 142.616L770.824 144.584C778.212 145.927 785.406 146.6 792.403 146.6V144.6ZM771.203 142.62C764.054 141.164 757.173 139.179 750.558 136.665L749.848 138.535C756.567 141.088 763.552 143.103 770.804 144.58L771.203 142.62ZM750.575 136.672C743.968 134.029 737.897 130.86 732.358 127.168L731.248 128.832C736.91 132.606 743.105 135.838 749.832 138.528L750.575 136.672ZM732.696 128.45L747.096 99.8497L745.31 98.9503L730.91 127.55L732.696 128.45ZM745.422 100.025C745.782 100.474 746.451 101.027 747.313 101.657C748.204 102.309 749.391 103.105 750.866 104.044L751.94 102.356C750.482 101.428 749.335 100.658 748.493 100.043C747.622 99.4062 747.158 98.9923 746.984 98.7753L745.422 100.025ZM750.894 104.061C753.863 105.815 757.493 107.697 761.779 109.705L762.628 107.895C758.38 105.903 754.81 104.051 751.912 102.339L750.894 104.061ZM761.813 109.721C766.259 111.607 771.168 113.288 776.538 114.764L777.068 112.836C771.771 111.379 766.947 109.726 762.594 107.879L761.813 109.721ZM776.538 114.764C781.957 116.254 787.446 117 793.003 117V115C787.627 115 782.316 114.279 777.068 112.836L776.538 114.764ZM793.003 117C798.938 117 803.512 116.063 806.558 114.032L805.448 112.368C802.895 114.07 798.802 115 793.003 115V117ZM806.54 114.044C809.747 112.003 811.403 109.093 811.403 105.4H809.403C809.403 108.374 808.126 110.664 805.466 112.356L806.54 114.044ZM811.403 105.4C811.403 101.455 809.693 98.3432 806.349 96.1624L805.257 97.8376C808.046 99.6568 809.403 102.145 809.403 105.4H811.403ZM806.366 96.1738C803.319 94.0958 799.148 92.2598 793.897 90.6442L793.309 92.5558C798.459 94.1402 802.421 95.9042 805.24 97.8262L806.366 96.1738ZM793.904 90.6464C788.832 89.0446 782.96 87.2432 776.29 85.2422L775.716 87.1578C782.379 89.1568 788.241 90.9554 793.302 92.5536L793.904 90.6464ZM776.297 85.2442C767.679 82.5924 760.554 79.6195 754.906 76.3355L753.901 78.0645C759.719 81.4472 766.994 84.4743 775.709 87.1558L776.297 85.2442ZM754.915 76.3407C749.435 73.079 745.368 69.1262 742.667 64.4961L740.939 65.5039C743.838 70.4738 748.171 74.6543 753.892 78.0593L754.915 76.3407ZM742.677 64.5144C740.115 59.9021 738.803 54.0813 738.803 47H736.803C736.803 54.3187 738.158 60.4979 740.929 65.4856L742.677 64.5144ZM738.803 47C738.803 37.1584 741.098 28.9667 745.628 22.3658L743.979 21.2342C739.175 28.2333 736.803 36.8416 736.803 47H738.803ZM745.625 22.3692C750.315 15.5947 756.566 10.5126 764.401 7.11755L763.606 5.28244C755.44 8.82067 748.891 14.1386 743.981 21.2308L745.625 22.3692ZM764.413 7.11192C772.275 3.57446 780.867 1.8 790.203 1.8V-0.200004C780.606 -0.200004 771.732 1.62553 763.593 5.28808L764.413 7.11192ZM790.203 1.8C796.789 1.8 803.104 2.5902 809.151 4.16761L809.656 2.23237C803.436 0.609792 796.951 -0.200004 790.203 -0.200004V1.8ZM809.156 4.16891C815.372 5.75612 821.117 7.73791 826.393 10.1119L827.213 8.28807C821.822 5.86208 815.967 3.84386 809.651 2.23107L809.156 4.16891ZM826.401 10.1156C831.844 12.5052 836.68 14.8907 840.913 17.2716L841.893 15.5284C837.593 13.1092 832.696 10.6948 827.205 8.28435L826.401 10.1156ZM840.519 15.9321L826.119 43.1321L827.887 44.0679L842.287 16.8679L840.519 15.9321Z" fill="white"/>
</svg>
