<svg width="415" height="189" viewBox="0 0 415 189" fill="none" xmlns="http://www.w3.org/2000/svg">
<path d="M10.2 154V47.5H82.5V69.1H34.8V92.05H74.1V112H34.8V154H10.2Z" fill="white"/>
<path d="M94.85 122.4V107.1H142.4V122.4H94.85ZM94.85 92.1V76.8H142.4V92.1H94.85Z" fill="white"/>
<path d="M351.05 47.5H377.6L414.2 154H389L380.75 130.15H347.6L339.5 154H314.3L351.05 47.5ZM376.7 113.2L364.25 72.25L351.5 113.2H376.7Z" fill="white"/>
<path d="M262.2 154V90.55L239.25 136.75H225.75L202.8 90.55V154H178.2V47.5H204.9L232.5 103.15L260.25 47.5H286.8V154H262.2Z" fill="#FEAC40"/>
</svg>
